<?xml version="1.0" encoding="UTF-8" standalone="no"?>
<!-- Created with Inkscape (http://www.inkscape.org/) -->

<svg xmlns:dc="http://purl.org/dc/elements/1.1/" xmlns:cc="http://creativecommons.org/ns#" xmlns:rdf="http://www.w3.org/1999/02/22-rdf-syntax-ns#" xmlns:svg="http://www.w3.org/2000/svg" xmlns="http://www.w3.org/2000/svg" xmlns:sodipodi="http://sodipodi.sourceforge.net/DTD/sodipodi-0.dtd" xmlns:inkscape="http://www.inkscape.org/namespaces/inkscape" width="101" height="36.319801" id="svg10136" version="1.1" inkscape:version="0.48.5 r10040" sodipodi:docname="logo.svg">
  <defs id="defs10138" />
  <sodipodi:namedview id="base" pagecolor="#ffffff" bordercolor="#666666" borderopacity="1.0" inkscape:pageopacity="0.0" inkscape:pageshadow="2" inkscape:zoom="4.1997043" inkscape:cx="47.069373" inkscape:cy="12.21392" inkscape:document-units="px" inkscape:current-layer="layer1" showgrid="false" inkscape:showpageshadow="false" borderlayer="true" fit-margin-top="1" fit-margin-left="1" fit-margin-right="0" fit-margin-bottom="1" inkscape:window-width="958" inkscape:window-height="1043" inkscape:window-x="960" inkscape:window-y="140" inkscape:window-maximized="0" showguides="false" />
  <metadata id="metadata10141">
    <rdf:RDF>
      <cc:Work rdf:about="">
        <dc:format>image/svg+xml</dc:format>
        <dc:type rdf:resource="http://purl.org/dc/dcmitype/StillImage" />
        <dc:title></dc:title>
      </cc:Work>
    </rdf:RDF>
  </metadata>
  <g inkscape:label="logo" inkscape:groupmode="layer" id="layer1" transform="translate(1,-1042.0428)">
    <path id="path10064" style="fill:#000000" d="m 83.079919,1043.0813 v -0.038 h -0.73792 c -0.22222,0 -0.43824,0.026 -0.65989,0.034 -7.44301,0.2859 -13.686375,5.3159 -15.759022,12.1621 -1.210515,-3.9951 -3.845235,-7.3664 -7.305792,-9.5485 -2.645007,-1.6674 -5.763584,-2.6481 -9.114676,-2.6481 h -0.0019 c -7.736858,0 -14.287461,5.1483 -16.422021,12.1977 -2.133007,-7.0494 -8.68361,-12.1977 -16.419109,-12.1977 -9.461742,7e-4 -17.159589,7.6989 -17.159589,17.1606 0,9.4604 7.697847,17.1586 17.159549,17.1586 7.735305,0 14.285908,-5.1483 16.419109,-12.1977 1.971722,6.5102 7.709492,11.3992 14.669423,12.1098 0.34295,0.034 0.69444,0.037 1.043213,0.052 0.236397,0.01 0.470077,0.036 0.709385,0.036 h 0.737916 v -0.037 c 7.409629,-0.3156 13.617281,-5.3373 15.682553,-12.1604 1.774142,5.86 6.602424,10.3915 12.625502,11.761 0.11548,0.026 0.22611,0.064 0.34159,0.087 0.90522,0.1869 1.84188,0.2796 2.79348,0.3169 0.22184,0.01 0.43786,0.033 0.6599,0.033 h 0.73791 v -0.037 c 9.11778,-0.3914 16.42047,-7.9095 16.42047,-17.122 0,-9.2129 -7.30308,-16.7335 -16.42066,-17.1223 z m -32.840743,32.767 v -14.9068 h 14.907179 c -0.377692,8.0579 -6.850661,14.5309 -14.907179,14.9068 z m 32.840743,0 v -31.2911 c 8.30456,0.3893 14.94464,7.2464 14.94464,15.6462 0,8.3999 -6.64008,15.2575 -14.94464,15.6449 z" inkscape:connector-curvature="0" />
  </g>
</svg>
