<svg xmlns="http://www.w3.org/2000/svg" width="101" height="36.32"><g><path d="M84.08 1.04V1h-.738c-.222 0-.438.027-.66.035-7.443.285-13.686 5.315-15.76 12.162-1.21-3.995-3.844-7.367-7.305-9.55C56.972 1.982 53.854 1 50.503 1H50.5c-7.736 0-14.287 5.148-16.42 12.198C31.945 6.148 25.394 1 17.66 1 8.198 1 .5 8.7.5 18.16s7.698 17.16 17.16 17.16c7.735 0 14.285-5.15 16.42-12.198 1.97 6.51 7.708 11.4 14.668 12.11.343.033.695.036 1.043.05.238.01.47.037.71.037h.74v-.038c7.408-.315 13.616-5.337 15.68-12.16 1.775 5.86 6.604 10.39 12.627 11.76.115.027.226.065.34.088.906.187 1.843.28 2.795.317.222.01.438.033.66.033h.738v-.037c9.117-.392 16.42-7.91 16.42-17.122S93.197 1.428 84.08 1.04zM51.24 33.805V18.9h14.906c-.377 8.057-6.85 14.53-14.907 14.906zm32.84 0V2.514c8.304.39 14.945 7.247 14.945 15.647S92.385 33.42 84.08 33.807z"/></g></svg>